<svg width="1200" height="900" viewBox="0 0 1200 900" fill="none" xmlns="http://www.w3.org/2000/svg">
  <rect width="1200" height="900" rx="64" fill="#241007"/>
  <circle cx="236" cy="190" r="260" fill="#EA580C" fill-opacity=".26"/>
  <circle cx="990" cy="160" r="260" fill="#FDBA74" fill-opacity=".18"/>
  <path d="M132 656C290 566 430 650 574 540C720 428 836 300 1068 252" stroke="url(#a)" stroke-width="18" stroke-linecap="round" stroke-dasharray="10 34"/>
  <rect x="120" y="150" width="402" height="490" rx="46" fill="white" fill-opacity=".95"/>
  <rect x="166" y="204" width="190" height="20" rx="10" fill="#EA580C"/>
  <rect x="166" y="252" width="276" height="16" rx="8" fill="#CBD5E1"/>
  <rect x="166" y="302" width="94" height="94" rx="24" fill="#FFEDD5"/>
  <rect x="292" y="302" width="94" height="94" rx="24" fill="#FED7AA"/>
  <rect x="166" y="426" width="220" height="94" rx="24" fill="#F8FAFC"/>
  <path d="M206 470H346" stroke="#EA580C" stroke-width="12" stroke-linecap="round"/>
  <path d="M226 494H320" stroke="#FDBA74" stroke-width="10" stroke-linecap="round"/>
  <rect x="166" y="556" width="152" height="46" rx="18" fill="#EA580C"/>
  <rect x="628" y="180" width="408" height="470" rx="46" fill="white" fill-opacity=".92"/>
  <circle cx="735" cy="314" r="72" fill="#FFEDD5"/>
  <path d="M702 320L732 350L776 282" stroke="#EA580C" stroke-width="14" stroke-linecap="round" stroke-linejoin="round"/>
  <rect x="844" y="260" width="126" height="18" rx="9" fill="#0F172A"/>
  <rect x="844" y="306" width="100" height="14" rx="7" fill="#CBD5E1"/>
  <rect x="690" y="440" width="288" height="18" rx="9" fill="#CBD5E1"/>
  <rect x="690" y="486" width="228" height="18" rx="9" fill="#E2E8F0"/>
  <rect x="690" y="548" width="158" height="48" rx="18" fill="#FFEDD5"/>
  <defs>
    <linearGradient id="a" x1="132" y1="656" x2="1068" y2="252" gradientUnits="userSpaceOnUse">
      <stop stop-color="#FDBA74"/>
      <stop offset=".52" stop-color="#EA580C"/>
      <stop offset="1" stop-color="#FDE68A"/>
    </linearGradient>
  </defs>
</svg>
